#N canvas 29 343 1203 535 10;
#X obj 65 206 send \$1_grain_size_rcv;
#X obj 223 231 send \$1_grain_density_rcv;
#X obj 457 259 send \$1_grain_pitch;
#X obj 724 209 send \$1_autoplay_on_off;
#X obj 73 280 send \$1_autoplay_speed;
#X obj 311 275 r master_reset_pitch;
#X obj 311 296 send \$1_reset_pitch;
#X obj 487 284 r master_on_off;
#X obj 487 305 s \$1_on_off;
#X obj 623 288 r master_volume;
#X obj 735 285 r master_offset_random;
#X obj 943 211 r master_grainplay_chance;
#X obj 943 232 s \$1_grainplay_chance;
#X obj 87 331 r master_reverse_random;
#X obj 89 352 send \$1_reverse_random;
#X obj 306 351 send \$1_random_pitch;
#X obj 305 330 r master_random_pitch;
#X obj 404 103 i \$1;
#X obj 401 86 loadbang;
#X obj 407 136 + 0;
#X obj 327 165 ys.random_tables;
#X obj 528 104 i \$1;
#X obj 525 87 loadbang;
#X obj 451 166 ys.random_tables;
#X obj 646 106 i \$1;
#X obj 643 89 loadbang;
#X obj 569 168 ys.random_tables;
#X obj 786 100 i \$1;
#X obj 783 83 loadbang;
#X obj 709 162 ys.random_tables;
#X obj 531 137 + 1;
#X obj 649 139 + 2;
#X obj 789 133 + 3;
#X obj 320 139 r \$0-clock;
#X obj 451 138 r \$0-clock;
#X obj 567 141 r \$0-clock;
#X obj 701 138 r \$0-clock;
#X floatatom 327 185 5 0 0 0 - - -;
#X floatatom 451 186 5 0 0 0 - - -;
#X floatatom 569 188 5 0 0 0 - - -;
#X floatatom 709 182 5 0 0 0 - - -;
#X obj 95 136 line;
#X floatatom 95 156 5 0 0 0 - - -;
#X msg 168 108 0;
#X obj 95 175 s \$0-clock;
#X obj 83 73 t b b;
#X obj 79 38 bng 15 250 50 0 empty empty empty 17 7 0 10 -262144 -1
-1;
#X obj 943 318 loadbang;
#X obj 943 338 random 100;
#X obj 943 358 s seed;
#X obj 1003 315 bng 15 250 50 0 empty empty empty 17 7 0 10 -262144
-1 -1;
#X obj 819 390 i \$1;
#X obj 816 373 loadbang;
#X obj 742 452 ys.random_tables;
#X obj 735 426 r \$0-clock;
#X floatatom 742 472 5 0 0 0 - - -;
#X obj 83 13 r start_ramps;
#X obj 654 210 + 0.2;
#X obj 337 46 inlet;
#X msg 84 105 1 300000;
#X obj 405 199 * 0.2;
#X obj 613 242 send \$1_grainplay_chance_rcv;
#X obj 703 522 s \$1_offset_random_rcv;
#X obj 968 24 i \$1;
#X obj 965 7 loadbang;
#X obj 891 86 ys.random_tables;
#X obj 883 62 r \$0-clock;
#X floatatom 891 106 5 0 0 0 - - -;
#X obj 971 57 + 4;
#X obj 888 170 s \$1_random_panning_rcv;
#X obj 601 375 s \$1_volume_rcv;
#X obj 535 384 i \$1;
#X obj 532 367 loadbang;
#X obj 458 446 ys.random_tables;
#X obj 450 422 r \$0-clock;
#X floatatom 458 466 5 0 0 0 - - -;
#X obj 822 423 + 5;
#X obj 538 417 + 6;
#X obj 723 500 * 0.1;
#X obj 569 211 * 0.3;
#X obj 569 231 + 0.7;
#X connect 5 0 6 0;
#X connect 7 0 8 0;
#X connect 11 0 12 0;
#X connect 13 0 14 0;
#X connect 16 0 15 0;
#X connect 17 0 19 0;
#X connect 18 0 17 0;
#X connect 19 0 20 1;
#X connect 20 0 37 0;
#X connect 21 0 30 0;
#X connect 22 0 21 0;
#X connect 23 0 38 0;
#X connect 24 0 31 0;
#X connect 25 0 24 0;
#X connect 26 0 39 0;
#X connect 27 0 32 0;
#X connect 28 0 27 0;
#X connect 29 0 40 0;
#X connect 30 0 23 1;
#X connect 31 0 26 1;
#X connect 32 0 29 1;
#X connect 33 0 20 0;
#X connect 34 0 23 0;
#X connect 35 0 26 0;
#X connect 36 0 29 0;
#X connect 37 0 0 0;
#X connect 38 0 60 0;
#X connect 39 0 79 0;
#X connect 40 0 57 0;
#X connect 41 0 42 0;
#X connect 42 0 44 0;
#X connect 43 0 41 0;
#X connect 45 0 59 0;
#X connect 45 1 43 0;
#X connect 46 0 45 0;
#X connect 47 0 48 0;
#X connect 48 0 49 0;
#X connect 50 0 48 0;
#X connect 51 0 76 0;
#X connect 52 0 51 0;
#X connect 53 0 55 0;
#X connect 54 0 53 0;
#X connect 55 0 78 0;
#X connect 56 0 46 0;
#X connect 57 0 4 0;
#X connect 58 0 44 0;
#X connect 59 0 41 0;
#X connect 60 0 1 0;
#X connect 63 0 68 0;
#X connect 64 0 63 0;
#X connect 65 0 67 0;
#X connect 66 0 65 0;
#X connect 67 0 69 0;
#X connect 68 0 65 1;
#X connect 71 0 77 0;
#X connect 72 0 71 0;
#X connect 73 0 75 0;
#X connect 74 0 73 0;
#X connect 75 0 70 0;
#X connect 76 0 53 1;
#X connect 77 0 73 1;
#X connect 78 0 62 0;
#X connect 79 0 80 0;
#X connect 80 0 61 0;
