#N canvas 195 203 691 548 12;
#X obj 94 56 catch~ \$1_grainoutL;
#X obj 240 57 catch~ \$1_grainoutR;
#X obj 203 468 dac~;
#X obj 180 355 r volume_master;
#X obj 265 432 *~ 1;
#X obj 133 435 *~ 1;
#X obj 142 498 outlet~;
#X obj 276 497 outlet~;
#X connect 0 0 5 0;
#X connect 1 0 4 0;
#X connect 3 0 4 1;
#X connect 3 0 5 1;
#X connect 4 0 2 1;
#X connect 4 0 7 0;
#X connect 5 0 2 0;
#X connect 5 0 6 0;
