#N canvas 129 23 1245 670 10;
#X obj 95 234 bng 15 250 50 0 reset_pitch_0 reset_pitch_rcv reset_pitch
17 7 0 10 -262144 -1 -1;
#N canvas 124 311 1091 567 clock 0;
#X obj 61 279 phasor~ 0.1;
#X floatatom 76 144 5 0 0 0 - - -;
#X floatatom 177 94 5 0 0 0 - - -;
#X obj 177 113 / 1000;
#X obj 179 144 * 44100;
#X floatatom 180 174 5 0 0 0 - - -;
#X obj 73 115 expr 1000/$f1;
#X obj 177 72 * 1000;
#X obj 75 166 sig~;
#X obj 54 213 phasor~;
#X obj 99 249 samphold~;
#X obj 75 188 *~ 2;
#X obj 87 320 outlet~;
#X obj 179 36 r grain_size;
#X obj 180 202 s grainsize;
#X connect 0 0 12 0;
#X connect 1 0 8 0;
#X connect 2 0 3 0;
#X connect 2 0 6 0;
#X connect 3 0 4 0;
#X connect 4 0 5 0;
#X connect 5 0 14 0;
#X connect 6 0 1 0;
#X connect 7 0 2 0;
#X connect 8 0 10 0;
#X connect 8 0 11 0;
#X connect 9 0 10 1;
#X connect 10 0 0 0;
#X connect 11 0 9 0;
#X connect 13 0 7 0;
#X restore 89 184 pd clock;
#X obj 337 484 bng 15 250 50 0 defaults_0 defaults_rcv defaults 17
7 0 10 -262144 -1 -1;
#X obj 89 140 bng 15 250 50 0 select_sound_0 select_sound_rcv select_sound
17 7 0 10 -262144 -1 -1;
#X floatatom 351 177 5 0 0 0 - - -;
#X text 290 176 channels;
#X obj 419 279 loadbang;
#X msg 450 342 16;
#X obj 350 128 r num_channels_rcv;
#X obj 353 249 s num_channels;
#X obj 420 397 s numgrains;
#X msg 489 343 32;
#X text 170 424 number of instances of y_grain_stereo should equal
the numgrains (I recognise this is silly);
#X msg 419 342 10;
#X obj 173 386 clone y_grain_stereo 10;
#X obj 650 428 metro 1000;
#X obj 739 238 r grain_density;
#X obj 656 624 s mastergrainbang;
#X msg 173 358 next 1;
#X obj 174 329 r mastergrainbang;
#X obj 718 181 r release;
#X obj 718 202 * 5000;
#X obj 740 295 * 1000;
#X obj 649 473 random 100;
#X floatatom 649 494 5 0 0 0 - - -;
#X obj 654 527 < 100;
#X obj 654 555 tgl 15 0 empty empty empty 17 7 0 10 -262144 -1 -1 0
1;
#X obj 654 575 sel 1;
#X obj 656 601 bng 15 250 50 0 empty empty empty 17 7 0 10 -262144
-1 -1;
#X obj 755 432 r grainplay_chance;
#X obj 755 459 * 100;
#X obj 505 220 * 44100;
#X floatatom 506 250 5 0 0 0 - - -;
#X obj 500 150 r grain_size;
#X obj 505 323 s grainsize;
#X obj 559 220 * 1000;
#X obj 742 381 +;
#X floatatom 742 402 5 0 0 0 - - -;
#X obj 560 273 / 10;
#X obj 586 305 t b f;
#X obj 505 182 + 0.01;
#X obj 631 164 r attack;
#X obj 632 187 * 2000;
#X msg 629 268 1 \$1;
#X msg 688 266 0 \$1;
#X obj 676 289 line;
#X floatatom 676 310 5 0 0 0 - - -;
#X obj 701 117 r on_off;
#X obj 701 138 sel 0 1;
#X obj 624 241 f;
#X obj 710 232 f;
#X obj 657 384 tgl 15 0 empty empty empty 17 7 0 10 -262144 -1 -1 0
1;
#X obj 651 402 change;
#X obj 673 341 > 0;
#X connect 4 0 9 0;
#X connect 6 0 13 0;
#X connect 7 0 10 0;
#X connect 8 0 4 0;
#X connect 11 0 10 0;
#X connect 13 0 10 0;
#X connect 15 0 23 0;
#X connect 16 0 22 0;
#X connect 18 0 14 0;
#X connect 19 0 18 0;
#X connect 20 0 21 0;
#X connect 21 0 50 1;
#X connect 22 0 36 0;
#X connect 23 0 24 0;
#X connect 24 0 25 0;
#X connect 25 0 26 0;
#X connect 26 0 27 0;
#X connect 27 0 28 0;
#X connect 28 0 17 0;
#X connect 29 0 30 0;
#X connect 30 0 25 1;
#X connect 31 0 32 0;
#X connect 32 0 34 0;
#X connect 33 0 40 0;
#X connect 35 0 38 0;
#X connect 36 0 15 1;
#X connect 36 0 37 0;
#X connect 38 0 39 0;
#X connect 39 0 36 0;
#X connect 39 1 36 1;
#X connect 40 0 31 0;
#X connect 40 0 35 0;
#X connect 41 0 42 0;
#X connect 42 0 49 1;
#X connect 43 0 45 0;
#X connect 44 0 45 0;
#X connect 45 0 46 0;
#X connect 46 0 53 0;
#X connect 47 0 48 0;
#X connect 48 0 50 0;
#X connect 48 1 49 0;
#X connect 49 0 43 0;
#X connect 50 0 44 0;
#X connect 51 0 52 0;
#X connect 52 0 15 0;
#X connect 53 0 51 0;
#X coords 0 670 1 669 400 600 0;
